<?xml version="1.0" standalone="no"?>
<!DOCTYPE svg PUBLIC "-//W3C//DTD SVG 20010904//EN"
 "http://www.w3.org/TR/2001/REC-SVG-20010904/DTD/svg10.dtd">
<svg version="1.0" xmlns="http://www.w3.org/2000/svg"
 width="1920.000000pt" height="1260.000000pt" viewBox="0 0 1920.000000 1260.000000"
 preserveAspectRatio="xMidYMid meet">

<g transform="translate(0.000000,1260.000000) scale(0.100000,-0.100000)"
fill="#000000" stroke="none">
<path d="M0 8561 l0 -4040 70 24 c197 67 424 118 580 130 75 6 122 0 412 -49
l327 -56 143 31 143 31 615 -5 c338 -3 827 -13 1085 -22 523 -20 529 -19 773
39 232 56 301 62 467 37 295 -43 344 -45 1385 -47 567 -2 1030 1 1063 6 32 5
95 23 140 41 120 46 168 44 405 -20 l194 -52 596 10 c329 6 756 16 951 22
l354 10 41 -40 c54 -52 92 -60 292 -61 131 0 473 17 481 24 1 1 -22 80 -52
176 -87 280 -105 431 -105 870 0 395 17 750 36 771 23 26 121 66 209 86 72 16
135 18 595 19 283 1 677 6 875 12 624 19 1884 37 2580 37 724 -1 870 -8 1145
-59 132 -25 276 -61 299 -76 25 -15 42 -148 48 -379 l6 -223 76 4 c66 4 97 13
231 70 216 91 220 93 345 93 104 0 119 -3 285 -54 171 -51 176 -54 228 -104
151 -147 317 -485 329 -672 8 -113 -12 -181 -111 -378 l-84 -167 874 0 874 0
0 4000 0 4000 -9600 0 -9600 0 0 -4039z"/>
<path d="M16680 5645 c-164 -64 -237 -103 -295 -160 -59 -58 -99 -137 -115
-226 -32 -186 -24 -172 -151 -257 -48 -32 -79 -60 -82 -74 -3 -13 -27 -131
-52 -263 -45 -231 -48 -243 -97 -333 -38 -72 -48 -96 -39 -105 8 -8 51 -12
124 -11 91 0 136 7 242 33 333 83 756 301 964 497 111 105 166 218 177 364 20
254 -170 504 -427 565 -94 22 -122 18 -249 -30z"/>
</g>
</svg>
